<?xml version="1.0" encoding="UTF-8"?>
<svg width="480px" height="782px" viewBox="0 0 480 782" version="1.1" xmlns="http://www.w3.org/2000/svg" xmlns:xlink="http://www.w3.org/1999/xlink">
    <!-- Generator: Sketch 41.2 (35397) - http://www.bohemiancoding.com/sketch -->
    <title>retranscoder</title>
    <desc>Created with Sketch.</desc>
    <defs>
        <rect id="path-1" x="0" y="101" width="120" height="80" rx="8"></rect>
        <mask id="mask-2" maskContentUnits="userSpaceOnUse" maskUnits="objectBoundingBox" x="0" y="0" width="120" height="80" fill="white">
            <use xlink:href="#path-1"></use>
        </mask>
        <rect id="path-3" x="180" y="101" width="120" height="80" rx="8"></rect>
        <mask id="mask-4" maskContentUnits="userSpaceOnUse" maskUnits="objectBoundingBox" x="0" y="0" width="120" height="80" fill="white">
            <use xlink:href="#path-3"></use>
        </mask>
        <rect id="path-5" x="360" y="101" width="120" height="80" rx="8"></rect>
        <mask id="mask-6" maskContentUnits="userSpaceOnUse" maskUnits="objectBoundingBox" x="0" y="0" width="120" height="80" fill="white">
            <use xlink:href="#path-5"></use>
        </mask>
        <rect id="path-7" x="360" y="241" width="120" height="60" rx="8"></rect>
        <mask id="mask-8" maskContentUnits="userSpaceOnUse" maskUnits="objectBoundingBox" x="0" y="0" width="120" height="60" fill="white">
            <use xlink:href="#path-7"></use>
        </mask>
        <rect id="path-9" x="0" y="241" width="120" height="60" rx="8"></rect>
        <mask id="mask-10" maskContentUnits="userSpaceOnUse" maskUnits="objectBoundingBox" x="0" y="0" width="120" height="60" fill="white">
            <use xlink:href="#path-9"></use>
        </mask>
        <rect id="path-11" x="180" y="241" width="120" height="60" rx="8"></rect>
        <mask id="mask-12" maskContentUnits="userSpaceOnUse" maskUnits="objectBoundingBox" x="0" y="0" width="120" height="60" fill="white">
            <use xlink:href="#path-11"></use>
        </mask>
        <rect id="path-13" x="360" y="341" width="120" height="86" rx="8"></rect>
        <mask id="mask-14" maskContentUnits="userSpaceOnUse" maskUnits="objectBoundingBox" x="0" y="0" width="120" height="86" fill="white">
            <use xlink:href="#path-13"></use>
        </mask>
        <rect id="path-15" x="0" y="341" width="120" height="86" rx="8"></rect>
        <mask id="mask-16" maskContentUnits="userSpaceOnUse" maskUnits="objectBoundingBox" x="0" y="0" width="120" height="86" fill="white">
            <use xlink:href="#path-15"></use>
        </mask>
        <rect id="path-17" x="180" y="341" width="120" height="86" rx="8"></rect>
        <mask id="mask-18" maskContentUnits="userSpaceOnUse" maskUnits="objectBoundingBox" x="0" y="0" width="120" height="86" fill="white">
            <use xlink:href="#path-17"></use>
        </mask>
        <rect id="path-19" x="360" y="461" width="120" height="80" rx="8"></rect>
        <mask id="mask-20" maskContentUnits="userSpaceOnUse" maskUnits="objectBoundingBox" x="0" y="0" width="120" height="80" fill="white">
            <use xlink:href="#path-19"></use>
        </mask>
        <rect id="path-21" x="180" y="702" width="120" height="80" rx="8"></rect>
        <mask id="mask-22" maskContentUnits="userSpaceOnUse" maskUnits="objectBoundingBox" x="0" y="0" width="120" height="80" fill="white">
            <use xlink:href="#path-21"></use>
        </mask>
        <rect id="path-23" x="207.426407" y="573.426407" width="60" height="60"></rect>
        <mask id="mask-24" maskContentUnits="userSpaceOnUse" maskUnits="objectBoundingBox" x="0" y="0" width="60" height="60" fill="white">
            <use xlink:href="#path-23"></use>
        </mask>
        <rect id="path-25" x="0" y="462" width="120" height="80" rx="8"></rect>
        <mask id="mask-26" maskContentUnits="userSpaceOnUse" maskUnits="objectBoundingBox" x="0" y="0" width="120" height="80" fill="white">
            <use xlink:href="#path-25"></use>
        </mask>
        <rect id="path-27" x="180" y="462" width="120" height="80" rx="8"></rect>
        <mask id="mask-28" maskContentUnits="userSpaceOnUse" maskUnits="objectBoundingBox" x="0" y="0" width="120" height="80" fill="white">
            <use xlink:href="#path-27"></use>
        </mask>
        <rect id="path-29" x="360" y="221" width="120" height="80" rx="8"></rect>
        <mask id="mask-30" maskContentUnits="userSpaceOnUse" maskUnits="objectBoundingBox" x="0" y="0" width="120" height="80" fill="white">
            <use xlink:href="#path-29"></use>
        </mask>
        <rect id="path-31" x="0" y="221" width="120" height="80" rx="8"></rect>
        <mask id="mask-32" maskContentUnits="userSpaceOnUse" maskUnits="objectBoundingBox" x="0" y="0" width="120" height="80" fill="white">
            <use xlink:href="#path-31"></use>
        </mask>
        <rect id="path-33" x="180" y="221" width="120" height="80" rx="8"></rect>
        <mask id="mask-34" maskContentUnits="userSpaceOnUse" maskUnits="objectBoundingBox" x="0" y="0" width="120" height="80" fill="white">
            <use xlink:href="#path-33"></use>
        </mask>
        <rect id="path-35" x="0" y="702" width="100" height="80"></rect>
        <mask id="mask-36" maskContentUnits="userSpaceOnUse" maskUnits="objectBoundingBox" x="0" y="0" width="100" height="80" fill="white">
            <use xlink:href="#path-35"></use>
        </mask>
    </defs>
    <g id="Page-1" stroke="none" stroke-width="1" fill="none" fill-rule="evenodd">
        <circle id="Oval" stroke="#979797" fill="#D8D8D8" cx="60" cy="31" r="30"></circle>
        <path d="M61.5,181.5 L61.5,224.5" id="Line" stroke="#979797" stroke-linecap="square"></path>
        <path id="Line-decoration-1" d="M61.5,224.5 L64.5,213.7 L58.5,213.7 L61.5,224.5 Z" stroke="#979797" stroke-linecap="square"></path>
        <path d="M61.5,301.5 L61.5,344.5" id="Line" stroke="#979797" stroke-linecap="square"></path>
        <path id="Line-decoration-1" d="M61.5,344.5 L64.5,333.7 L58.5,333.7 L61.5,344.5 Z" stroke="#979797" stroke-linecap="square"></path>
        <path d="M61.5,417.5 L61.5,460.5" id="Line" stroke="#979797" stroke-linecap="square"></path>
        <path id="Line-decoration-1" d="M61.5,460.5 L64.5,449.7 L58.5,449.7 L61.5,460.5 Z" stroke="#979797" stroke-linecap="square"></path>
        <path d="M238.5,501.5 L238.5,564.5" id="Line" stroke="#979797" stroke-linecap="square"></path>
        <path id="Line-decoration-1" d="M238.5,564.5 L241.5,553.7 L235.5,553.7 L238.5,564.5 Z" stroke="#979797" stroke-linecap="square"></path>
        <use id="Rectangle" stroke="#979797" mask="url(#mask-2)" stroke-width="2" fill="#D8D8D8" xlink:href="#path-1"></use>
        <use id="Rectangle-Copy" stroke="#979797" mask="url(#mask-4)" stroke-width="2" fill="#D8D8D8" xlink:href="#path-3"></use>
        <use id="Rectangle-Copy-4" stroke="#979797" mask="url(#mask-6)" stroke-width="2" fill="#D8D8D8" xlink:href="#path-5"></use>
        <path d="M120.5,140.5 L181.5,140.5" id="Line" stroke="#979797" stroke-linecap="square"></path>
        <path id="Line-decoration-1" d="M181.5,140.5 L170.7,137.5 L170.7,143.5 L181.5,140.5 Z" stroke="#979797" stroke-linecap="square"></path>
        <path d="M121.5,261.5 L179.5,261.5" id="Line" stroke="#979797" stroke-linecap="square"></path>
        <path id="Line-decoration-1" d="M179.5,261.5 L168.7,258.5 L168.7,264.5 L179.5,261.5 Z" stroke="#979797" stroke-linecap="square"></path>
        <path d="M299.5,261.5 L359.5,261.5" id="Line" stroke="#979797" stroke-linecap="square"></path>
        <path id="Line-decoration-1" d="M359.5,261.5 L348.7,258.5 L348.7,264.5 L359.5,261.5 Z" stroke="#979797" stroke-linecap="square"></path>
        <path d="M120.5,379.5 L181.5,379.5" id="Line" stroke="#979797" stroke-linecap="square"></path>
        <path id="Line-decoration-1" d="M181.5,379.5 L170.7,376.5 L170.7,382.5 L181.5,379.5 Z" stroke="#979797" stroke-linecap="square"></path>
        <path d="M301.5,380.5 L360.5,380.5" id="Line" stroke="#979797" stroke-linecap="square"></path>
        <path id="Line-decoration-1" d="M360.5,380.5 L349.7,377.5 L349.7,383.5 L360.5,380.5 Z" stroke="#979797" stroke-linecap="square"></path>
        <path d="M121.5,500.5 L179.5,500.5" id="Line" stroke="#979797" stroke-linecap="square"></path>
        <path id="Line-decoration-1" d="M179.5,500.5 L168.7,497.5 L168.7,503.5 L179.5,500.5 Z" stroke="#979797" stroke-linecap="square"></path>
        <path d="M300.5,500.5 L360.5,500.5" id="Line" stroke="#979797" stroke-linecap="square"></path>
        <path id="Line-decoration-1" d="M360.5,500.5 L349.7,497.5 L349.7,503.5 L360.5,500.5 Z" stroke="#979797" stroke-linecap="square"></path>
        <path d="M421.5,600.5 L282.5,600.5" id="Line" stroke="#979797" stroke-linecap="square"></path>
        <path id="Line-decoration-1" d="M282.5,600.5 L293.3,603.5 L293.3,597.5 L282.5,600.5 Z" stroke="#979797" stroke-linecap="square"></path>
        <path d="M301.5,140.5 L361.5,140.5" id="Line" stroke="#979797" stroke-linecap="square"></path>
        <path id="Line-decoration-1" d="M361.5,140.5 L350.7,137.5 L350.7,143.5 L361.5,140.5 Z" stroke="#979797" stroke-linecap="square"></path>
        <use id="Rectangle-Copy-5" stroke="#979797" mask="url(#mask-8)" stroke-width="2" fill="#D8D8D8" xlink:href="#path-7"></use>
        <use id="Rectangle-Copy-2" stroke="#979797" mask="url(#mask-10)" stroke-width="2" fill="#D8D8D8" xlink:href="#path-9"></use>
        <use id="Rectangle-Copy-3" stroke="#979797" mask="url(#mask-12)" stroke-width="2" fill="#D8D8D8" xlink:href="#path-11"></use>
        <use id="Rectangle-Copy-5" stroke="#979797" mask="url(#mask-14)" stroke-width="2" fill="#D8D8D8" xlink:href="#path-13"></use>
        <use id="Rectangle-Copy-2" stroke="#979797" mask="url(#mask-16)" stroke-width="2" fill="#D8D8D8" xlink:href="#path-15"></use>
        <use id="Rectangle-Copy-3" stroke="#979797" mask="url(#mask-18)" stroke-width="2" fill="#D8D8D8" xlink:href="#path-17"></use>
        <use id="Rectangle-Copy-5" stroke="#979797" mask="url(#mask-20)" stroke-width="2" fill="#D8D8D8" xlink:href="#path-19"></use>
        <use id="Rectangle-Copy-5" stroke="#979797" mask="url(#mask-22)" stroke-width="2" fill="#D8D8D8" xlink:href="#path-21"></use>
        <use id="Rectangle-2" stroke="#979797" mask="url(#mask-24)" stroke-width="2" fill="#D8D8D8" transform="translate(237.426407, 603.426407) rotate(45.000000) translate(-237.426407, -603.426407) " xlink:href="#path-23"></use>
        <use id="Rectangle-Copy-2" stroke="#979797" mask="url(#mask-26)" stroke-width="2" fill="#D8D8D8" xlink:href="#path-25"></use>
        <use id="Rectangle-Copy-3" stroke="#979797" mask="url(#mask-28)" stroke-width="2" fill="#D8D8D8" xlink:href="#path-27"></use>
        <use id="Rectangle-Copy-5" stroke="#979797" mask="url(#mask-30)" stroke-width="2" fill="#D8D8D8" xlink:href="#path-29"></use>
        <use id="Rectangle-Copy-2" stroke="#979797" mask="url(#mask-32)" stroke-width="2" fill="#D8D8D8" xlink:href="#path-31"></use>
        <use id="Rectangle-Copy-3" stroke="#979797" mask="url(#mask-34)" stroke-width="2" fill="#D8D8D8" xlink:href="#path-33"></use>
        <text id="Get-Profiles-(option" font-family="Helvetica" font-size="12" font-weight="normal" fill="#000000">
            <tspan x="30.4552734" y="141">Get Profiles</tspan>
            <tspan x="36.7863281" y="155">(optional)</tspan>
        </text>
        <text id="Profiles-Proxy" font-family="Helvetica" font-size="12" font-weight="normal" fill="#000000">
            <tspan x="219.593164" y="141">Profiles</tspan>
            <tspan x="224.263086" y="155">Proxy</tspan>
        </text>
        <text id="Ingest-Profiles-API" font-family="Helvetica" font-size="12" font-weight="normal" fill="#000000">
            <tspan x="382.181445" y="141">Ingest Profiles</tspan>
            <tspan x="410.529102" y="155">API</tspan>
        </text>
        <text id="CMS-API" font-family="Helvetica" font-size="12" font-weight="normal" fill="#000000">
            <tspan x="397.457227" y="264">CMS API</tspan>
        </text>
        <text id="Videos-Proxy" font-family="Helvetica" font-size="12" font-weight="normal" fill="#000000">
            <tspan x="223.559766" y="264">Videos</tspan>
            <tspan x="226.463086" y="278">Proxy</tspan>
        </text>
        <text id="Get-Video-Count" font-family="Helvetica" font-size="12" font-weight="normal" fill="#000000">
            <tspan x="35.221875" y="264">Get Video</tspan>
            <tspan x="45.7892578" y="278">Count</tspan>
        </text>
        <text id="Get-Videos" font-family="Helvetica" font-size="12" font-weight="normal" fill="#000000">
            <tspan x="30.421875" y="384">Get Videos</tspan>
        </text>
        <text id="Videos-Proxy" font-family="Helvetica" font-size="12" font-weight="normal" fill="#000000">
            <tspan x="221.959766" y="372">Videos</tspan>
            <tspan x="224.863086" y="386">Proxy</tspan>
        </text>
        <text id="CMS-API" font-family="Helvetica" font-size="12" font-weight="normal" fill="#000000">
            <tspan x="396.057227" y="384">CMS API</tspan>
        </text>
        <text id="DI-API" font-family="Helvetica" font-size="12" font-weight="normal" fill="#000000">
            <tspan x="403.990234" y="504">DI API</tspan>
        </text>
        <text id="Notifications-Handle" font-family="Helvetica" font-size="12" font-weight="normal" fill="#000000">
            <tspan x="209.319336" y="744">Notifications </tspan>
            <tspan x="220.988281" y="758">Handler</tspan>
        </text>
        <text id="Job-Count" font-family="Helvetica" font-size="12" font-weight="normal" fill="#000000">
            <tspan x="213.148438" y="604">Job Count</tspan>
        </text>
        <text id="DI-Proxy" font-family="Helvetica" font-size="12" font-weight="normal" fill="#000000">
            <tspan x="217.196094" y="504">DI Proxy</tspan>
        </text>
        <text id="Transcode-Videos" font-family="Helvetica" font-size="12" font-weight="normal" fill="#000000">
            <tspan x="32.0720703" y="492">Transcode</tspan>
            <tspan x="41.9597656" y="506">Videos</tspan>
        </text>
        <path d="M60.5,61.5 L60.5,101.5" id="Line" stroke="#979797" stroke-linecap="square"></path>
        <path id="Line-decoration-1" d="M60.5,101.5 L63.5,90.7 L57.5,90.7 L60.5,101.5 Z" stroke="#979797" stroke-linecap="square"></path>
        <path d="M420.5,599.5 L420.5,542.5" id="Line" stroke="#979797" stroke-linecap="square"></path>
        <path id="Line-decoration-1" d="M420.5,542.5 L417.5,553.3 L423.5,553.3 L420.5,542.5 Z" stroke="#979797" stroke-linecap="square"></path>
        <use id="Rectangle-3" stroke="#979797" mask="url(#mask-36)" stroke-width="2" fill="#D8D8D8" xlink:href="#path-35"></use>
        <path d="M180.5,742.5 L99.5,742.5" id="Line" stroke="#979797" stroke-linecap="square"></path>
        <path id="Line-decoration-1" d="M99.5,742.5 L110.3,745.5 L110.3,739.5 L99.5,742.5 Z" stroke="#979797" stroke-linecap="square"></path>
        <text id="Notifications-Log" font-family="Helvetica" font-size="12" font-weight="normal" fill="#000000">
            <tspan x="21.8193359" y="744">Notifications </tspan>
            <tspan x="44.4892578" y="758">Log</tspan>
        </text>
        <path d="M242.5,699.5 L242.5,681.5" id="Line" stroke="#979797" stroke-linecap="square"></path>
        <path d="M243.5,683.5 L161.5,683.5" id="Line" stroke="#979797" stroke-linecap="square"></path>
        <path d="M162.5,682.5 L162.5,603.5" id="Line" stroke="#979797" stroke-linecap="square"></path>
        <path d="M164.5,603.5 L196.5,603.5" id="Line" stroke="#979797" stroke-linecap="square"></path>
        <path id="Line-decoration-1" d="M196.5,603.5 L185.7,600.5 L185.7,606.5 L196.5,603.5 Z" stroke="#979797" stroke-linecap="square"></path>
        <text id="&lt;-100" font-family="Helvetica" font-size="12" font-weight="normal" fill="#000000">
            <tspan x="271.318359" y="587">&lt; 100</tspan>
        </text>
        <text id="if-count-=-100-wait" font-family="Helvetica" font-size="12" font-weight="normal" fill="#000000">
            <tspan x="245.806641" y="652">if count = 100</tspan>
            <tspan x="240.307617" y="666">wait 30 sec and</tspan>
            <tspan x="270" y="680">retry</tspan>
        </text>
        <text id="If-count-&lt;-100,-make" font-family="Helvetica" font-size="12" font-weight="normal" fill="#000000">
            <tspan x="353.966797" y="619">If count &lt; 100, make</tspan>
            <tspan x="348.798828" y="633">request and increment</tspan>
            <tspan x="393.822266" y="647">count</tspan>
        </text>
        <text id="If-TITLE-SUCCESS/-FA" font-family="Helvetica" font-size="12" font-weight="normal" fill="#000000">
            <tspan x="40.4277344" y="624">If TITLE SUCCESS/</tspan>
            <tspan x="51.8623047" y="638">FAIL decrement</tspan>
            <tspan x="69.6484375" y="652">job count</tspan>
        </text>
    </g>
</svg>